<mxfile host="app.diagrams.net" agent="Mozilla/5.0 (Macintosh; Intel Mac OS X 10_15_7) AppleWebKit/537.36 (KHTML, like Gecko) Chrome/139.0.0.0 Safari/537.36" version="28.2.1">
  <diagram name="Page-1" id="-Vcg7CJUfU4U7R7kA9Kx">
    <mxGraphModel dx="1426" dy="790" grid="1" gridSize="10" guides="1" tooltips="1" connect="1" arrows="1" fold="1" page="1" pageScale="1" pageWidth="827" pageHeight="1169" math="0" shadow="0">
      <root>
        <mxCell id="0" />
        <mxCell id="1" parent="0" />
        <mxCell id="VNYR7maTMlYue2yzljUY-46" value="" style="swimlane;startSize=0;" vertex="1" parent="1">
          <mxGeometry x="341.95" y="40" width="120" height="110" as="geometry" />
        </mxCell>
        <mxCell id="VNYR7maTMlYue2yzljUY-47" value="JIRA" style="text;html=1;align=center;verticalAlign=middle;whiteSpace=wrap;rounded=0;" vertex="1" parent="VNYR7maTMlYue2yzljUY-46">
          <mxGeometry x="30" y="80" width="60" height="30" as="geometry" />
        </mxCell>
        <mxCell id="VNYR7maTMlYue2yzljUY-2" value="" style="image;html=1;image=img/lib/atlassian/Jira_Logo.svg;" vertex="1" parent="VNYR7maTMlYue2yzljUY-46">
          <mxGeometry x="35.000000000000014" y="20" width="50" height="50" as="geometry" />
        </mxCell>
        <mxCell id="VNYR7maTMlYue2yzljUY-49" value="" style="shape=mxgraph.sap.icon;labelPosition=center;verticalLabelPosition=bottom;align=center;verticalAlign=top;strokeWidth=1;strokeColor=#D5DADD;fillColor=#EDEFF0;gradientColor=#FCFCFC;gradientDirection=west;aspect=fixed;SAPIcon=Service_Ticket_Intelligence2" vertex="1" parent="1">
          <mxGeometry x="371.95" y="210" width="60" height="60" as="geometry" />
        </mxCell>
        <mxCell id="VNYR7maTMlYue2yzljUY-50" value="" style="swimlane;startSize=0;" vertex="1" parent="1">
          <mxGeometry x="341.95" y="200" width="120" height="110" as="geometry" />
        </mxCell>
        <mxCell id="VNYR7maTMlYue2yzljUY-51" value="Create" style="text;html=1;align=center;verticalAlign=middle;whiteSpace=wrap;rounded=0;" vertex="1" parent="VNYR7maTMlYue2yzljUY-50">
          <mxGeometry x="30" y="80" width="60" height="30" as="geometry" />
        </mxCell>
        <mxCell id="VNYR7maTMlYue2yzljUY-53" value="" style="swimlane;startSize=0;" vertex="1" parent="1">
          <mxGeometry x="341.95" y="360" width="120" height="110" as="geometry" />
        </mxCell>
        <mxCell id="VNYR7maTMlYue2yzljUY-76" value="Ticket Data" style="text;html=1;align=center;verticalAlign=middle;whiteSpace=wrap;rounded=0;" vertex="1" parent="VNYR7maTMlYue2yzljUY-53">
          <mxGeometry x="31.94999999999999" y="70" width="60" height="30" as="geometry" />
        </mxCell>
        <mxCell id="VNYR7maTMlYue2yzljUY-77" value="" style="aspect=fixed;sketch=0;html=1;dashed=0;whitespace=wrap;verticalLabelPosition=bottom;verticalAlign=top;fillColor=#2875E2;strokeColor=#ffffff;points=[[0.005,0.63,0],[0.1,0.2,0],[0.9,0.2,0],[0.5,0,0],[0.995,0.63,0],[0.72,0.99,0],[0.5,1,0],[0.28,0.99,0]];shape=mxgraph.kubernetes.icon2;kubernetesLabel=1;prIcon=api" vertex="1" parent="VNYR7maTMlYue2yzljUY-53">
          <mxGeometry x="36.94999999999999" y="10" width="50" height="48" as="geometry" />
        </mxCell>
        <mxCell id="VNYR7maTMlYue2yzljUY-55" style="edgeStyle=orthogonalEdgeStyle;rounded=0;orthogonalLoop=1;jettySize=auto;html=1;exitX=0.5;exitY=1;exitDx=0;exitDy=0;entryX=0.5;entryY=0;entryDx=0;entryDy=0;" edge="1" parent="1" source="VNYR7maTMlYue2yzljUY-47" target="VNYR7maTMlYue2yzljUY-50">
          <mxGeometry relative="1" as="geometry" />
        </mxCell>
        <mxCell id="VNYR7maTMlYue2yzljUY-56" style="edgeStyle=orthogonalEdgeStyle;rounded=0;orthogonalLoop=1;jettySize=auto;html=1;exitX=0.5;exitY=1;exitDx=0;exitDy=0;entryX=0.5;entryY=0;entryDx=0;entryDy=0;" edge="1" parent="1" source="VNYR7maTMlYue2yzljUY-51" target="VNYR7maTMlYue2yzljUY-53">
          <mxGeometry relative="1" as="geometry" />
        </mxCell>
        <mxCell id="VNYR7maTMlYue2yzljUY-57" value="n8n" style="swimlane;whiteSpace=wrap;html=1;startSize=23;" vertex="1" parent="1">
          <mxGeometry x="120" y="500" width="550" height="200" as="geometry" />
        </mxCell>
        <mxCell id="VNYR7maTMlYue2yzljUY-58" value="" style="verticalLabelPosition=bottom;shadow=0;dashed=0;align=center;html=1;verticalAlign=top;shape=mxgraph.electrical.logic_gates.schmitt_trigger;" vertex="1" parent="VNYR7maTMlYue2yzljUY-57">
          <mxGeometry x="50" y="70" width="60" height="60" as="geometry" />
        </mxCell>
        <mxCell id="VNYR7maTMlYue2yzljUY-59" value="" style="points=[];aspect=fixed;html=1;align=center;shadow=0;dashed=0;fillColor=#FF6A00;strokeColor=none;shape=mxgraph.alibaba_cloud.multimediaai;" vertex="1" parent="VNYR7maTMlYue2yzljUY-57">
          <mxGeometry x="250" y="69.99999999999997" width="60" height="59.1" as="geometry" />
        </mxCell>
        <mxCell id="VNYR7maTMlYue2yzljUY-62" value="" style="swimlane;startSize=0;" vertex="1" parent="VNYR7maTMlYue2yzljUY-57">
          <mxGeometry x="20" y="60" width="120" height="110" as="geometry" />
        </mxCell>
        <mxCell id="VNYR7maTMlYue2yzljUY-63" value="Webhook Trigger" style="text;html=1;align=center;verticalAlign=middle;whiteSpace=wrap;rounded=0;" vertex="1" parent="VNYR7maTMlYue2yzljUY-62">
          <mxGeometry x="30" y="80" width="60" height="30" as="geometry" />
        </mxCell>
        <mxCell id="VNYR7maTMlYue2yzljUY-70" value="" style="swimlane;startSize=0;" vertex="1" parent="VNYR7maTMlYue2yzljUY-57">
          <mxGeometry x="220" y="60" width="120" height="110" as="geometry" />
        </mxCell>
        <mxCell id="VNYR7maTMlYue2yzljUY-71" value="Process" style="text;html=1;align=center;verticalAlign=middle;whiteSpace=wrap;rounded=0;" vertex="1" parent="VNYR7maTMlYue2yzljUY-70">
          <mxGeometry x="30" y="80" width="60" height="30" as="geometry" />
        </mxCell>
        <mxCell id="VNYR7maTMlYue2yzljUY-72" value="" style="swimlane;startSize=0;" vertex="1" parent="VNYR7maTMlYue2yzljUY-57">
          <mxGeometry x="410" y="60" width="120" height="110" as="geometry" />
        </mxCell>
        <mxCell id="VNYR7maTMlYue2yzljUY-73" value="Drive" style="text;html=1;align=center;verticalAlign=middle;whiteSpace=wrap;rounded=0;" vertex="1" parent="VNYR7maTMlYue2yzljUY-72">
          <mxGeometry x="30" y="80" width="60" height="30" as="geometry" />
        </mxCell>
        <mxCell id="VNYR7maTMlYue2yzljUY-60" value="" style="shape=image;html=1;verticalAlign=top;verticalLabelPosition=bottom;labelBackgroundColor=#ffffff;imageAspect=0;aspect=fixed;image=https://icons.diagrams.net/icon-cache1/Social_Network-2542/32-1462.svg" vertex="1" parent="VNYR7maTMlYue2yzljUY-72">
          <mxGeometry x="32.5" y="12.049999999999997" width="55" height="55" as="geometry" />
        </mxCell>
        <mxCell id="VNYR7maTMlYue2yzljUY-75" style="edgeStyle=orthogonalEdgeStyle;rounded=0;orthogonalLoop=1;jettySize=auto;html=1;exitX=0.5;exitY=1;exitDx=0;exitDy=0;entryX=0.516;entryY=0.005;entryDx=0;entryDy=0;entryPerimeter=0;" edge="1" parent="1" target="VNYR7maTMlYue2yzljUY-57">
          <mxGeometry relative="1" as="geometry">
            <mxPoint x="401.95000000000005" y="470" as="sourcePoint" />
          </mxGeometry>
        </mxCell>
      </root>
    </mxGraphModel>
  </diagram>
</mxfile>
